<svg width="99" height="68" viewBox="0 0 99 68" fill="none" xmlns="http://www.w3.org/2000/svg">
<g clip-path="url(#clip0_62_64)">
<path d="M49.5 4.22461C48.247 4.22461 47.0095 4.40944 45.8339 4.76589L2.44406 18.1394C0.974532 18.6014 6.20726e-07 19.7896 6.20726e-07 21.123C6.20726e-07 22.4564 0.974532 23.6446 2.44406 24.1066L11.4005 26.8658C8.86359 30.2719 7.425 34.2985 7.425 38.5363V42.246C7.425 45.9953 5.75438 49.8635 3.97547 52.9131C2.97 54.6294 1.82531 56.3192 0.495001 57.877C6.26082e-07 58.4447 -0.139218 59.184 0.139219 59.8573C0.417657 60.5306 1.06734 61.0323 1.87172 61.2039L11.7717 63.3162C12.4214 63.4614 13.1175 63.3558 13.6898 63.0522C14.2622 62.7485 14.6644 62.2468 14.7881 61.6792C16.1184 56.0288 15.4533 50.9592 14.4633 47.3287C13.9683 45.4541 13.3031 43.5398 12.375 41.7839V38.5363C12.375 34.5493 13.9528 30.7868 16.6908 27.7768C18.6863 25.7305 21.2695 24.0802 24.3014 23.0637L48.5873 14.9181C49.8558 14.4957 51.2944 15.0237 51.7894 16.1063C52.2844 17.1888 51.6656 18.4166 50.3972 18.8391L26.1113 26.9846C24.1931 27.6315 22.507 28.6217 21.1303 29.8362L45.8184 37.4405C46.9941 37.797 48.2316 37.9818 49.4845 37.9818C50.7375 37.9818 51.975 37.797 53.1506 37.4405L96.5559 24.1066C98.0255 23.6578 99 22.4564 99 21.123C99 19.7896 98.0255 18.6014 96.5559 18.1394L53.1661 4.76589C51.9905 4.40944 50.753 4.22461 49.5 4.22461ZM19.8 53.8637C19.8 58.5239 33.1031 63.369 49.5 63.369C65.8969 63.369 79.2 58.5239 79.2 53.8637L76.8333 34.6681L54.8367 41.4539C53.1197 41.982 51.3098 42.246 49.5 42.246C47.6902 42.246 45.8648 41.982 44.1633 41.4539L22.1667 34.6681L19.8 53.8637Z" fill="#7371FC"/>
</g>
<defs>
<clipPath id="clip0_62_64">
<rect width="99" height="67.5936" fill="white"/>
</clipPath>
</defs>
</svg>
