<?xml version="1.0" encoding="UTF-8"?>
<svg id="OrientaTest" xmlns="http://www.w3.org/2000/svg" viewBox="0 0 923.5 463.72">
  <defs>
    <style>
      .cls-1 {
        stroke-width: 0px;
      }
    </style>
  </defs>
  <g>
    <path class="cls-1" d="M443.37,232.28c-8.46,0-15.16-1.52-20.1-4.56-4.94-3.04-8.48-7.39-10.62-13.04-2.14-5.65-3.21-12.42-3.21-20.31v-43.05c0-7.89,1.07-14.63,3.21-20.24,2.14-5.61,5.68-9.88,10.62-12.83,4.94-2.94,11.64-4.42,20.1-4.42s15.32,1.5,20.31,4.49c4.99,2.99,8.55,7.27,10.69,12.83,2.14,5.56,3.21,12.28,3.21,20.17v43.05c0,7.89-1.07,14.66-3.21,20.31-2.14,5.66-5.7,10-10.69,13.04-4.99,3.04-11.76,4.56-20.31,4.56ZM443.37,215.32c3.04,0,5.27-.69,6.7-2.07,1.42-1.38,2.37-3.23,2.85-5.56.47-2.33.71-4.82.71-7.48v-54.6c0-2.66-.24-5.13-.71-7.41-.48-2.28-1.43-4.11-2.85-5.49-1.43-1.38-3.66-2.07-6.7-2.07-2.85,0-4.99.69-6.42,2.07-1.42,1.38-2.38,3.21-2.85,5.49-.48,2.28-.71,4.75-.71,7.41v54.6c0,2.66.21,5.16.64,7.48.43,2.33,1.35,4.18,2.78,5.56,1.43,1.38,3.61,2.07,6.56,2.07Z"/>
    <path class="cls-1" d="M492.26,230.71v-82.4h21.53v13.26c2.76-4.85,5.49-8.43,8.2-10.76,2.71-2.33,5.92-3.49,9.62-3.49.66,0,1.26.02,1.78.07.52.05,1.02.17,1.5.36v21.67c-1.05-.47-2.23-.88-3.56-1.21-1.33-.33-2.71-.5-4.13-.5-2.66,0-5.08.69-7.27,2.07-2.19,1.38-4.23,3.35-6.13,5.92v55.03h-21.53Z"/>
    <path class="cls-1" d="M544.87,134.77v-16.11h21.67v16.11h-21.67ZM545.01,230.71v-82.4h21.53v82.4h-21.53Z"/>
    <path class="cls-1" d="M607.31,232.14c-6.08,0-11.17-1.12-15.25-3.35-4.09-2.23-7.18-5.51-9.27-9.84-2.09-4.32-3.14-9.53-3.14-15.61v-27.66c0-6.27,1.04-11.52,3.14-15.75,2.09-4.23,5.23-7.46,9.41-9.69,4.18-2.23,9.22-3.35,15.11-3.35,6.27,0,11.36,1.14,15.25,3.42,3.9,2.28,6.77,5.61,8.62,9.98,1.85,4.37,2.78,9.69,2.78,15.97v14.4h-33.07v15.97c0,2.38.26,4.33.78,5.84.52,1.52,1.26,2.59,2.21,3.21.95.62,2.14.93,3.56.93,1.33,0,2.49-.31,3.49-.93,1-.62,1.73-1.59,2.21-2.92.47-1.33.71-3.09.71-5.27v-7.84h19.96v6.84c0,8.36-2.28,14.73-6.84,19.1-4.56,4.37-11.12,6.56-19.67,6.56ZM600.89,180.39h12.97v-8.13c0-2.38-.24-4.3-.71-5.77-.48-1.47-1.21-2.52-2.21-3.14-1-.62-2.26-.93-3.78-.93-1.43,0-2.59.33-3.49,1-.9.67-1.59,1.83-2.07,3.49-.48,1.66-.71,4.02-.71,7.06v6.42Z"/>
    <path class="cls-1" d="M646.94,230.71v-82.4h21.53v8.27c2.95-2.94,6.06-5.3,9.34-7.06,3.28-1.76,6.77-2.64,10.48-2.64,3.42,0,6.2.86,8.34,2.57,2.14,1.71,3.73,3.97,4.78,6.77,1.04,2.8,1.57,5.96,1.57,9.48v65.01h-21.38v-61.44c0-2.28-.36-3.99-1.07-5.13-.71-1.14-2.07-1.71-4.06-1.71-1.14,0-2.4.31-3.78.93-1.38.62-2.78,1.45-4.21,2.5v64.86h-21.53Z"/>
    <path class="cls-1" d="M780.09,232.14c-3.99,0-7.37-1-10.12-2.99-2.76-2-4.85-4.51-6.27-7.56-1.42-3.04-2.14-6.18-2.14-9.41,0-5.13,1-9.46,2.99-12.97,2-3.51,4.61-6.46,7.84-8.84,3.23-2.37,6.84-4.42,10.83-6.13,3.99-1.71,7.98-3.28,11.97-4.7v-7.7c0-1.8-.14-3.37-.43-4.7-.29-1.33-.83-2.35-1.64-3.07-.81-.71-1.97-1.07-3.49-1.07s-2.69.31-3.49.93c-.81.62-1.4,1.52-1.78,2.71-.38,1.19-.57,2.49-.57,3.92l-.57,5.7-20.24-.86c.47-9.69,3.02-16.87,7.63-21.53,4.61-4.66,11.57-6.99,20.89-6.99,8.36,0,14.54,2.31,18.53,6.91,3.99,4.61,5.99,10.67,5.99,18.18v38.35c0,3.23.07,6.11.21,8.62.14,2.52.33,4.75.57,6.7.24,1.95.45,3.63.64,5.06h-19.39c-.29-2.09-.62-4.37-1-6.84-.38-2.47-.67-4.13-.86-4.99-.95,3.42-2.76,6.49-5.42,9.19-2.66,2.71-6.23,4.06-10.69,4.06ZM787.93,216.89c1.04,0,2.02-.24,2.92-.71.9-.47,1.73-1.09,2.49-1.85s1.38-1.47,1.85-2.14v-22.67c-2,1.24-3.85,2.45-5.56,3.63-1.71,1.19-3.19,2.5-4.42,3.92-1.24,1.42-2.19,2.99-2.85,4.7-.67,1.71-1,3.66-1,5.84,0,2.85.57,5.11,1.71,6.77,1.14,1.66,2.75,2.5,4.85,2.5Z"/>
  </g>
  <g>
    <path class="cls-1" d="M786.79,356.73c-6.08,0-11.17-1.12-15.25-3.35-4.09-2.23-7.18-5.51-9.27-9.84-2.09-4.32-3.14-9.53-3.14-15.61v-27.66c0-6.27,1.04-11.52,3.14-15.75,2.09-4.23,5.23-7.46,9.41-9.69,4.18-2.23,9.22-3.35,15.11-3.35,6.27,0,11.36,1.14,15.25,3.42,3.9,2.28,6.77,5.61,8.62,9.98,1.85,4.37,2.78,9.69,2.78,15.97v14.4h-33.07v15.97c0,2.38.26,4.33.78,5.84.52,1.52,1.26,2.59,2.21,3.21.95.62,2.14.93,3.56.93,1.33,0,2.49-.31,3.49-.93,1-.62,1.73-1.59,2.21-2.92.47-1.33.71-3.09.71-5.27v-7.84h19.96v6.84c0,8.36-2.28,14.73-6.84,19.1-4.56,4.37-11.12,6.56-19.67,6.56ZM780.37,304.99h12.97v-8.13c0-2.38-.24-4.3-.71-5.77-.48-1.47-1.21-2.52-2.21-3.14-1-.62-2.26-.93-3.78-.93-1.43,0-2.59.33-3.49,1-.9.67-1.59,1.83-2.07,3.49-.48,1.66-.71,4.02-.71,7.06v6.42Z"/>
    <path class="cls-1" d="M850.37,356.73c-7.13,0-13-1.73-17.61-5.2-4.61-3.47-8.2-8.81-10.76-16.04l15.11-6.27c1.42,3.99,3.14,7.11,5.13,9.34,2,2.23,4.32,3.35,6.99,3.35,2,0,3.49-.45,4.49-1.35,1-.9,1.5-2.16,1.5-3.78,0-2.28-.76-4.32-2.28-6.13-1.52-1.8-4.23-4.32-8.12-7.56l-7.7-6.56c-3.99-3.42-7.2-6.82-9.62-10.19-2.42-3.37-3.64-7.58-3.64-12.62,0-4.47,1.12-8.36,3.35-11.69,2.23-3.33,5.23-5.92,8.98-7.77,3.75-1.85,7.82-2.78,12.19-2.78,6.84,0,12.45,1.92,16.82,5.77,4.37,3.85,7.36,9.05,8.98,15.61l-14.4,6.27c-.48-2.09-1.21-4.06-2.21-5.92-1-1.85-2.21-3.4-3.64-4.63-1.42-1.23-3.09-1.85-4.99-1.85-1.71,0-3.09.52-4.13,1.57-1.05,1.05-1.57,2.38-1.57,3.99,0,1.71.88,3.52,2.64,5.42,1.76,1.9,4.21,4.18,7.34,6.84l7.7,6.84c2.28,2,4.51,4.11,6.7,6.34,2.19,2.23,3.99,4.7,5.42,7.41s2.14,5.82,2.14,9.34c0,4.75-1.14,8.79-3.42,12.12-2.28,3.33-5.3,5.84-9.05,7.56-3.76,1.71-7.87,2.57-12.33,2.57Z"/>
    <path class="cls-1" d="M910.24,356.16c-5.8,0-10.29-.88-13.47-2.64-3.18-1.76-5.39-4.3-6.63-7.63-1.24-3.33-1.85-7.36-1.85-12.12v-46.76h-8.13v-14.11h8.13v-24.95h21.67v24.95h12.12v14.11h-12.12v44.76c0,2.57.66,4.4,2,5.49,1.33,1.09,3.14,1.64,5.42,1.64,1.14,0,2.23-.07,3.28-.21,1.04-.14,2-.26,2.85-.36v16.82c-1.43.19-3.35.4-5.77.64-2.42.24-4.92.36-7.48.36Z"/>
  </g>
  <polygon class="cls-1" points="730.05 104.6 688.63 131.21 700.54 131.21 718.36 131.21 718.36 229.14 718.36 258.8 718.36 327.08 718.36 356.73 742.02 356.73 742.02 327.08 742.02 258.8 742.02 229.14 742.02 131.21 759.56 131.21 771.47 131.21 730.05 104.6"/>
</svg>