<?xml version="1.0" encoding="UTF-8"?>
<svg id="Layer_1" data-name="Layer 1" xmlns="http://www.w3.org/2000/svg" viewBox="0 0 184.16 229.59">
  <defs>
    <style>
      .cls-1 {
        fill: #1dbadf;
      }

      .cls-1, .cls-2 {
        stroke-width: 0px;
      }

      .cls-2 {
        fill: #1d1d1b;
      }
    </style>
  </defs>
  <g>
    <polygon class="cls-1" points="93.41 32.85 70.04 47.72 70.04 82.96 65.04 86.14 65.04 50.92 57.19 55.92 57.19 55.92 41.83 65.7 41.83 130.7 93.41 97.85 93.41 97.85 93.41 32.85"/>
    <polygon class="cls-2" points="65.04 86.14 70.04 82.96 70.04 47.72 93.41 32.85 41.83 0 41.83 23.7 57.19 33.48 57.19 55.92 65.04 50.92 65.04 86.14"/>
    <polygon class="cls-1" points="145.01 17.88 145.01 0 93.41 32.85 93.41 32.85 93.41 32.85 93.41 32.85 125.87 53.51 145.01 41.33 145.01 23.7 120.01 39.63 120.01 33.81 145.01 17.88"/>
    <polygon class="cls-1" points="130.45 56.42 145.01 65.7 145.01 47.13 130.45 56.42"/>
    <polygon class="cls-2" points="93.41 32.85 93.41 97.85 93.41 97.85 145.01 130.7 145.01 101.1 116.97 83.21 116.97 77.37 145.01 95.26 145.01 65.7 125.87 53.51 125.87 53.51 93.41 32.85"/>
  </g>
  <g>
    <path class="cls-2" d="M27.86,154.05h5.84v23.28c0,7.54-3.77,11.16-10.05,11.16s-9.98-3.99-9.98-11.46v-22.98h5.84v-7.46H0v7.46h5.32v23.43c0,12.56,7.46,18.62,18.33,18.62s18.18-6.06,18.18-18.77v-23.28h5.32v-7.46h-19.29v7.46Z"/>
    <polygon class="cls-2" points="50.47 160.47 58.38 160.47 58.38 153.82 67.39 153.82 67.39 187.75 61.33 187.75 61.33 195.21 81.8 195.21 81.8 187.75 75.74 187.75 75.74 153.82 84.76 153.82 84.76 160.47 92.67 160.47 92.67 146.58 50.47 146.58 50.47 160.47"/>
    <polygon class="cls-2" points="125.48 187.82 110.99 187.82 110.99 174.07 125.7 174.07 125.7 166.98 110.99 166.98 110.99 153.97 125.41 153.97 125.41 160.47 133.39 160.47 133.39 146.58 97.1 146.58 97.1 154.05 102.64 154.05 102.64 187.75 97.1 187.75 97.1 195.21 133.46 195.21 133.46 181.32 125.48 181.32 125.48 187.82"/>
    <path class="cls-2" d="M184.16,154.12c-2.27-2.52-5.08-4.56-8.23-6-2-.97-4.35-1.71-7-2.1,0,0,0,0,0,0-.29-.05-.59-.08-.88-.11-.39-.04-.79-.09-1.2-.12-.14-.01-.27-.02-.41-.03-.59-.04-1.19-.06-1.79-.06-.02,0-.04,0-.06,0-.03,0-.05,0-.08,0-.83,0-1.64.04-2.44.11-.17.02-.35.04-.52.05-.44.04-.86.11-1.29.17-11.92,1.67-20.3,10.19-21.23,22.56-.06.76-.1,1.53-.1,2.31s.05,1.55.1,2.31c.93,12.37,9.3,20.89,21.23,22.56.43.06.85.13,1.29.17.17.02.34.04.52.05.8.07,1.62.11,2.44.11.03,0,.05,0,.08,0,.02,0,.04,0,.06,0,.6,0,1.2-.03,1.79-.06.14,0,.27-.02.41-.03.41-.03.8-.07,1.2-.12.29-.04.59-.07.88-.11,0,0,0,0,0,0,2.64-.39,5-1.12,7-2.1,3.15-1.44,5.95-3.47,8.22-5.99h.02v-9.53h-8.01v6.01c-1.38,1.1-2.86,2.04-4.48,2.73-1.46.63-3.02,1.07-4.68,1.28-.24.03-.48.05-.72.07-.37.03-.76.05-1.15.06-.21,0-.41.02-.63.02-10.16-.08-16.89-7.76-16.92-17.43.04-9.67,6.76-17.36,16.92-17.44.22,0,.42.01.63.02.4.01.79.03,1.15.06.24.02.48.04.72.07,1.66.21,3.21.66,4.68,1.28,1.61.69,3.1,1.62,4.47,2.73v6.03h8.01v-9.53h0,0Z"/>
  </g>
  <g>
    <path class="cls-2" d="M8.23,212.46v-5.34h1.16v5.3c0,2.13-1.02,3.17-3.09,3.17s-3.24-1.03-3.24-3.17v-5.3h1.31v5.34c0,1.67.83,2.1,2,2.1s1.86-.46,1.86-2.1Z"/>
    <path class="cls-2" d="M12.28,207.12h1.5l3.66,6.18h.02v-6.18h1.13v8.4h-1.2l-3.97-6.73h-.02v6.73h-1.12v-8.4Z"/>
    <path class="cls-2" d="M21.53,215.52v-8.4h1.32v8.4h-1.32Z"/>
    <path class="cls-2" d="M25.24,207.52v-.4h1.22l2.25,6.79h.02l2.27-6.79h1.1v.4l-2.77,8h-1.36l-2.75-8Z"/>
    <path class="cls-2" d="M34.48,207.12h5.14v1.01h-3.85v2.62h2.82v.96h-2.82v2.83h3.98v.98h-5.28v-8.4Z"/>
    <path class="cls-2" d="M45.12,212.01c-.12.01-.25.01-.4.01h-1.19v3.5h-1.29v-8.4h2.48c1.86,0,3,.74,3,2.39,0,1.15-.5,1.88-1.38,2.24l1.81,3.37v.4h-1.19l-1.85-3.51ZM43.53,211.06h1.15c1.14,0,1.72-.41,1.72-1.48s-.61-1.46-1.72-1.46h-1.15v2.94Z"/>
    <path class="cls-2" d="M50.15,214.88v-1.05h.46c.38.41,1.02.77,2.06.77s1.73-.44,1.73-1.36c0-1.04-.85-1.19-1.91-1.49-1.48-.43-2.22-1.03-2.22-2.39,0-1.46,1.04-2.31,2.67-2.31,1.01,0,1.73.24,2.23.56v1.02h-.44c-.43-.35-.95-.59-1.74-.59-1.07,0-1.58.44-1.58,1.22,0,.88.64,1.1,1.65,1.37,1.72.47,2.53.96,2.53,2.47,0,1.63-1.07,2.48-2.89,2.48-1.19,0-1.93-.29-2.55-.71Z"/>
    <path class="cls-2" d="M58.07,215.52v-8.4h1.32v8.4h-1.32Z"/>
    <path class="cls-2" d="M62.34,207.12h2.4c2.72,0,4.2,1.25,4.2,4.17s-1.49,4.22-4.23,4.22h-2.36v-8.4ZM64.7,214.54c1.98,0,2.89-.9,2.89-3.23s-.91-3.19-2.89-3.19h-1.07v6.42h1.07Z"/>
    <path class="cls-2" d="M70.52,215.12l2.77-8h1.39l2.76,8v.4h-1.24l-.78-2.35h-3.08l-.75,2.35h-1.07v-.4ZM72.66,212.21h2.45l-1.21-3.71h-.02l-1.21,3.71Z"/>
    <path class="cls-2" d="M79.82,207.12h2.4c2.72,0,4.2,1.25,4.2,4.17s-1.49,4.22-4.23,4.22h-2.36v-8.4ZM82.18,214.54c1.98,0,2.89-.9,2.89-3.23s-.91-3.19-2.89-3.19h-1.07v6.42h1.07Z"/>
    <path class="cls-2" d="M92.59,207.12h2.4c2.72,0,4.2,1.25,4.2,4.17s-1.49,4.22-4.23,4.22h-2.36v-8.4ZM94.95,214.54c1.98,0,2.89-.9,2.89-3.23s-.91-3.19-2.89-3.19h-1.07v6.42h1.07Z"/>
    <path class="cls-2" d="M101.69,207.12h5.15v1.01h-3.85v2.62h2.82v.96h-2.82v2.83h3.98v.98h-5.28v-8.4Z"/>
    <path class="cls-2" d="M113.14,215.52v-8.4h1.32v8.4h-1.32Z"/>
    <path class="cls-2" d="M117.41,207.12h1.5l3.66,6.18h.02v-6.18h1.13v8.4h-1.2l-3.97-6.73h-.02v6.73h-1.12v-8.4Z"/>
    <path class="cls-2" d="M126.19,211.32c0-2.78,1.6-4.27,3.96-4.27,1.08,0,1.7.22,2.36.56v1.08h-.47c-.42-.37-.93-.64-1.87-.64-1.57,0-2.6.95-2.6,3.21s.85,3.37,2.43,3.37c.74,0,1.18-.13,1.52-.3v-2.17h-1.4v-.91h2.7v3.68c-.71.38-1.63.65-2.82.65-2.36,0-3.81-1.48-3.81-4.27Z"/>
    <path class="cls-2" d="M135.65,207.12h5.15v1.01h-3.85v2.62h2.82v.96h-2.82v2.83h3.98v.98h-5.28v-8.4Z"/>
    <path class="cls-2" d="M143.4,207.12h1.5l3.66,6.18h.02v-6.18h1.13v8.4h-1.2l-3.97-6.73h-.02v6.73h-1.12v-8.4Z"/>
    <path class="cls-2" d="M152.66,215.52v-8.4h1.32v8.4h-1.32Z"/>
    <path class="cls-2" d="M156.93,207.12h5.14v1.01h-3.85v2.62h2.82v.96h-2.82v2.83h3.98v.98h-5.28v-8.4Z"/>
    <path class="cls-2" d="M167.57,212.01c-.12.01-.25.01-.4.01h-1.19v3.5h-1.29v-8.4h2.48c1.86,0,3,.74,3,2.39,0,1.15-.5,1.88-1.38,2.24l1.81,3.37v.4h-1.19l-1.85-3.51ZM165.99,211.06h1.15c1.14,0,1.71-.41,1.71-1.48s-.61-1.46-1.71-1.46h-1.15v2.94Z"/>
    <path class="cls-2" d="M173.14,215.52v-8.4h1.32v8.4h-1.32ZM173.4,206.56l.52-1.14h1.23v.38l-1.04,1.05h-.71v-.3Z"/>
    <path class="cls-2" d="M176.86,215.12l2.77-8h1.39l2.76,8v.4h-1.23l-.78-2.35h-3.08l-.75,2.35h-1.07v-.4ZM178.99,212.21h2.45l-1.21-3.71h-.03l-1.21,3.71Z"/>
    <path class="cls-2" d="M94.99,229.52v-3.36l-2.57-4.62v-.42h1.19l2.06,3.8h.01l2.02-3.8h1.04v.42l-2.46,4.58v3.39h-1.29Z"/>
    <path class="cls-2" d="M106.58,229.52v-7.41h-2.41v-.98h6.13v.98h-2.41v7.41h-1.31Z"/>
    <path class="cls-2" d="M112.67,221.12h5.15v1.01h-3.85v2.62h2.82v.96h-2.82v2.83h3.98v.98h-5.28v-8.4Z"/>
    <path class="cls-2" d="M119.84,225.32c0-2.71,1.65-4.27,3.84-4.27,1.2,0,1.8.26,2.42.67v1.02h-.5c-.4-.38-.95-.7-1.88-.7-1.52,0-2.54,1.12-2.54,3.23,0,2.22.9,3.33,2.45,3.33,1.07,0,1.68-.42,2.16-.91h.42v1c-.58.5-1.42.9-2.63.9-2.23,0-3.73-1.55-3.73-4.27Z"/>
    <path class="cls-2" d="M128.68,221.12h1.5l3.66,6.18h.02v-6.18h1.13v8.4h-1.2l-3.97-6.73h-.02v6.73h-1.12v-8.4Z"/>
    <path class="cls-2" d="M137.47,225.32c0-2.76,1.75-4.27,3.8-4.27s3.79,1.51,3.79,4.27-1.75,4.27-3.79,4.27-3.8-1.5-3.8-4.27ZM143.73,225.35c0-2.23-1.06-3.32-2.46-3.32s-2.46,1.09-2.46,3.32,1.04,3.27,2.46,3.27,2.46-1.04,2.46-3.27Z"/>
    <path class="cls-2" d="M147.56,229.52v-8.4h1.29v7.41h3.74v.98h-5.04Z"/>
    <path class="cls-2" d="M154.01,225.32c0-2.76,1.75-4.27,3.8-4.27s3.79,1.51,3.79,4.27-1.75,4.27-3.79,4.27-3.8-1.5-3.8-4.27ZM160.27,225.35c0-2.23-1.06-3.32-2.46-3.32s-2.46,1.09-2.46,3.32,1.04,3.27,2.46,3.27,2.46-1.04,2.46-3.27Z"/>
    <path class="cls-2" d="M163.66,225.32c0-2.78,1.6-4.27,3.96-4.27,1.08,0,1.7.22,2.36.56v1.08h-.47c-.42-.37-.94-.64-1.87-.64-1.57,0-2.6.95-2.6,3.21s.85,3.37,2.43,3.37c.74,0,1.18-.13,1.52-.3v-2.17h-1.4v-.91h2.7v3.68c-.71.38-1.63.65-2.82.65-2.36,0-3.81-1.48-3.81-4.27Z"/>
    <path class="cls-2" d="M173.14,229.52v-8.4h1.32v8.4h-1.32ZM173.41,220.56l.52-1.14h1.23v.38l-1.04,1.05h-.71v-.3Z"/>
    <path class="cls-2" d="M176.86,229.12l2.77-8h1.39l2.76,8v.4h-1.24l-.78-2.35h-3.08l-.76,2.35h-1.07v-.4ZM179,226.21h2.45l-1.21-3.71h-.02l-1.21,3.71Z"/>
  </g>
</svg>